<?xml version="1.0" encoding="UTF-8"?>
<svg width="88px" height="33px" viewBox="0 0 245 108" version="1.1" xmlns="http://www.w3.org/2000/svg" xmlns:xlink="http://www.w3.org/1999/xlink">
    <!-- Generator: Sketch 49.3 (51167) - http://www.bohemiancoding.com/sketch -->
    <title>Pi Kappa Phi Logo</title>
    <desc>Created with Sketch.</desc>
    <defs>
        <polygon id="path-1" points="0.931933131 0.403 71.2459389 0.403 71.2459389 66.4859047 0.931933131 66.4859047"></polygon>
        <polygon id="path-3" points="0.330926287 0.0604 23.7604236 0.0604 23.7604236 25 0.330926287 25"></polygon>
        <polygon id="path-5" points="0.948888158 0.0604 24.3787922 0.0604 24.3787922 25 0.948888158 25"></polygon>
    </defs>
    <g id="Page-1" stroke="none" stroke-width="1" fill="none" fill-rule="evenodd">
        <g id="Basic-Page" transform="translate(-598.000000, -2831.000000)">
            <g id="Pi-Kappa-Phi-Logo" transform="translate(598.000000, 2830.000000)">
                <g id="Group-3" transform="translate(86.000000, 0.597000)">
                    <mask id="mask-2" fill="white">
                        <use xlink:href="#path-1"></use>
                    </mask>
                    <g id="Clip-2"></g>
                    <path d="M55.0518,58.3407 L56.2018,54.7777 L56.3698,54.9657 L58.4468,57.3927 L55.0518,58.3407 Z M45.8078,35.2407 L53.4908,56.4647 L36.2948,42.5607 L18.5478,56.0977 L26.0488,35.2407 L7.9368,22.7997 L29.5258,22.7997 L35.9748,3.2297 L42.3308,22.7997 L64.1028,22.7997 L45.8078,35.2407 Z M13.7318,57.3927 L15.8088,54.9657 L15.9818,54.7747 L17.0798,58.3267 L13.7318,57.3927 Z M69.6868,62.3937 C69.6078,62.3747 69.5308,62.3677 69.4528,62.3587 L69.4528,62.3567 C69.3128,61.5177 68.5558,58.7027 64.5768,56.6877 C64.7778,56.4767 65.7418,55.7187 69.6848,55.0847 L64.6178,49.6027 L63.2638,53.0487 C63.2638,53.0487 63.2598,53.0637 63.2508,53.0907 L61.0588,50.7327 L58.4438,47.8267 L66.6458,22.4137 L53.6278,13.1147 L59.8308,6.0827 L60.5818,0.6527 L55.2548,1.9507 L48.3958,9.3777 L35.8338,0.4027 L23.7288,9.3187 L16.9238,1.9507 L11.5968,0.6527 L12.3468,6.0827 L18.5588,13.1257 L5.9708,22.3967 L13.8088,47.7447 L11.1188,50.7327 L8.9288,53.0907 C8.9178,53.0637 8.9148,53.0487 8.9148,53.0487 L7.5608,49.6027 L2.4938,55.0847 C6.4358,55.7187 7.4008,56.4767 7.6008,56.6877 C3.6218,58.7027 2.8648,61.5177 2.7258,62.3567 L2.7258,62.3587 C2.6468,62.3677 2.5708,62.3747 2.4908,62.3937 C1.3788,62.6817 0.7128,63.8157 0.9978,64.9277 C1.2868,66.0387 2.4238,66.7057 3.5338,66.4197 C4.4418,66.1837 5.0428,65.3837 5.0798,64.4907 C5.8908,64.2717 8.6228,63.2367 10.2278,59.0607 C10.4408,59.2257 11.2828,60.0917 12.3318,63.9957 L17.1478,58.5467 L17.1518,58.5587 L54.9818,58.5577 L54.9978,58.5097 L59.8458,63.9957 C60.8958,60.0917 61.7388,59.2257 61.9498,59.0607 C63.5548,63.2367 66.2888,64.2717 67.0998,64.4907 C67.1348,65.3837 67.7378,66.1837 68.6438,66.4197 C69.7558,66.7057 70.8908,66.0387 71.1798,64.9277 C71.4658,63.8157 70.7978,62.6817 69.6868,62.3937 Z" id="Fill-1" fill="#005596" mask="url(#mask-2)"></path>
                </g>
                <polygon id="Fill-4" fill="#E6A623" points="129.6766 35.1174 130.8626 34.3104 144.1956 25.2444 128.4246 25.2444 127.0836 25.2444 126.6686 23.9684 122.0566 9.7654 117.3736 23.9744 116.9556 25.2444 115.6196 25.2444 99.9826 25.2444 113.1886 34.3144 114.3636 35.1224 113.8806 36.4634 108.4986 51.4294 121.2686 41.6874 122.4216 40.8074 123.5496 41.7214 135.5916 51.4564 130.1646 36.4664"></polygon>
                <path d="M8.641,95.3898 C10.608,95.3898 12.259,93.8088 12.259,91.7358 C12.259,89.8038 10.608,88.3278 8.641,88.3278 L4.566,88.3278 L4.566,95.3898 L8.641,95.3898 Z M0,84.6748 C0,84.3238 0.281,84.0078 0.667,84.0078 L8.922,84.0078 C13.243,84.0078 16.79,87.5208 16.79,91.7718 C16.79,96.1268 13.243,99.6738 8.957,99.6738 L4.566,99.6738 L4.566,107.9288 C4.566,108.2798 4.25,108.5968 3.899,108.5968 L0.667,108.5968 C0.281,108.5968 0,108.2798 0,107.9288 L0,84.6748 Z" id="Fill-6" fill="#005596"></path>
                <path d="M23.4404,84.675 C23.4404,84.323 23.7564,84.008 24.1084,84.008 L27.3744,84.008 C27.7264,84.008 28.0424,84.323 28.0424,84.675 L28.0424,107.929 C28.0424,108.28 27.7264,108.597 27.3744,108.597 L24.1084,108.597 C23.7564,108.597 23.4404,108.28 23.4404,107.929 L23.4404,84.675 Z" id="Fill-8" fill="#005596"></path>
                <path d="M49.2199,84.8508 C49.2199,84.3938 49.5709,84.0078 50.0629,84.0078 L53.1539,84.0078 C53.6109,84.0078 53.9969,84.3938 53.9969,84.8508 L53.9969,94.3358 L62.8499,84.3588 C62.9899,84.1838 63.2009,84.0078 63.5169,84.0078 L67.0299,84.0078 C67.6969,84.0078 68.0479,84.7468 67.5909,85.2728 L58.4229,95.5998 L68.2589,107.3688 C68.6099,107.8258 68.3289,108.5968 67.6269,108.5968 L63.7979,108.5968 C63.4469,108.5968 63.2359,108.4558 63.1649,108.3518 L53.9969,97.0398 L53.9969,107.7528 C53.9969,108.2098 53.6109,108.5968 53.1539,108.5968 L50.0629,108.5968 C49.5709,108.5968 49.2199,108.2098 49.2199,107.7528 L49.2199,84.8508 Z" id="Fill-10" fill="#005596"></path>
                <g id="Group-14" transform="translate(73.000000, 83.597000)">
                    <mask id="mask-4" fill="white">
                        <use xlink:href="#path-3"></use>
                    </mask>
                    <g id="Clip-13"></g>
                    <path d="M15.5769,16.6044 L12.0639,8.8764 L11.9589,8.8764 L8.5159,16.6044 L15.5769,16.6044 Z M0.4009,24.0864 L11.3259,0.4464 C11.4319,0.2354 11.6069,0.0604 11.9229,0.0604 L12.2749,0.0604 C12.6259,0.0604 12.7659,0.2354 12.8709,0.4464 L23.6899,24.0864 C23.9009,24.5424 23.6199,25.0004 23.0939,25.0004 L20.0369,25.0004 C19.5099,25.0004 19.2639,24.7894 19.0189,24.2974 L17.2969,20.5034 L6.7939,20.5034 L5.0729,24.2974 C4.9329,24.6484 4.6169,25.0004 4.0549,25.0004 L0.9989,25.0004 C0.4719,25.0004 0.1909,24.5424 0.4009,24.0864 Z" id="Fill-12" fill="#005596" mask="url(#mask-4)"></path>
                </g>
                <path d="M111.5287,95.3898 C113.4957,95.3898 115.1467,93.8088 115.1467,91.7358 C115.1467,89.8038 113.4957,88.3278 111.5287,88.3278 L107.4537,88.3278 L107.4537,95.3898 L111.5287,95.3898 Z M102.8867,84.6748 C102.8867,84.3238 103.1677,84.0078 103.5547,84.0078 L111.8097,84.0078 C116.1297,84.0078 119.6777,87.5208 119.6777,91.7718 C119.6777,96.1268 116.1297,99.6738 111.8447,99.6738 L107.4537,99.6738 L107.4537,107.9288 C107.4537,108.2798 107.1377,108.5968 106.7857,108.5968 L103.5547,108.5968 C103.1677,108.5968 102.8867,108.2798 102.8867,107.9288 L102.8867,84.6748 Z" id="Fill-15" fill="#005596"></path>
                <path d="M134.9691,95.3898 C136.9351,95.3898 138.5871,93.8088 138.5871,91.7358 C138.5871,89.8038 136.9351,88.3278 134.9691,88.3278 L130.8951,88.3278 L130.8951,95.3898 L134.9691,95.3898 Z M126.3271,84.6748 C126.3271,84.3238 126.6081,84.0078 126.9951,84.0078 L135.2501,84.0078 C139.5711,84.0078 143.1181,87.5208 143.1181,91.7718 C143.1181,96.1268 139.5711,99.6738 135.2851,99.6738 L130.8951,99.6738 L130.8951,107.9288 C130.8951,108.2798 130.5771,108.5968 130.2261,108.5968 L126.9951,108.5968 C126.6081,108.5968 126.3271,108.2798 126.3271,107.9288 L126.3271,84.6748 Z" id="Fill-17" fill="#005596"></path>
                <g id="Group-21" transform="translate(144.000000, 83.597000)">
                    <mask id="mask-6" fill="white">
                        <use xlink:href="#path-5"></use>
                    </mask>
                    <g id="Clip-20"></g>
                    <path d="M16.1944,16.6044 L12.6814,8.8764 L12.5764,8.8764 L9.1334,16.6044 L16.1944,16.6044 Z M1.0194,24.0864 L11.9434,0.4464 C12.0494,0.2354 12.2254,0.0604 12.5414,0.0604 L12.8924,0.0604 C13.2434,0.0604 13.3834,0.2354 13.4894,0.4464 L24.3084,24.0864 C24.5194,24.5424 24.2374,25.0004 23.7114,25.0004 L20.6554,25.0004 C20.1284,25.0004 19.8824,24.7894 19.6364,24.2974 L17.9154,20.5034 L7.4124,20.5034 L5.6914,24.2974 C5.5504,24.6484 5.2344,25.0004 4.6724,25.0004 L1.6164,25.0004 C1.0894,25.0004 0.8084,24.5424 1.0194,24.0864 Z" id="Fill-19" fill="#005596" mask="url(#mask-6)"></path>
                </g>
                <path d="M194.9296,95.3898 C196.8976,95.3898 198.5476,93.8088 198.5476,91.7358 C198.5476,89.8038 196.8976,88.3278 194.9296,88.3278 L190.8556,88.3278 L190.8556,95.3898 L194.9296,95.3898 Z M186.2886,84.6748 C186.2886,84.3238 186.5696,84.0078 186.9566,84.0078 L195.2116,84.0078 C199.5326,84.0078 203.0806,87.5208 203.0806,91.7718 C203.0806,96.1268 199.5326,99.6738 195.2466,99.6738 L190.8556,99.6738 L190.8556,107.9288 C190.8556,108.2798 190.5396,108.5968 190.1876,108.5968 L186.9566,108.5968 C186.5696,108.5968 186.2886,108.2798 186.2886,107.9288 L186.2886,84.6748 Z" id="Fill-22" fill="#005596"></path>
                <path d="M209.729,84.675 C209.729,84.323 210.045,84.008 210.397,84.008 L213.663,84.008 C214.05,84.008 214.331,84.323 214.331,84.675 L214.331,93.984 L225.782,93.984 L225.782,84.675 C225.782,84.323 226.063,84.008 226.45,84.008 L229.682,84.008 C230.033,84.008 230.349,84.323 230.349,84.675 L230.349,107.929 C230.349,108.28 230.033,108.597 229.682,108.597 L226.45,108.597 C226.063,108.597 225.782,108.28 225.782,107.929 L225.782,98.235 L214.331,98.235 L214.331,107.929 C214.331,108.28 214.05,108.597 213.663,108.597 L210.397,108.597 C210.045,108.597 209.729,108.28 209.729,107.929 L209.729,84.675 Z" id="Fill-24" fill="#005596"></path>
                <path d="M239.5768,84.675 C239.5768,84.323 239.8928,84.008 240.2448,84.008 L243.5108,84.008 C243.8628,84.008 244.1788,84.323 244.1788,84.675 L244.1788,107.929 C244.1788,108.28 243.8628,108.597 243.5108,108.597 L240.2448,108.597 C239.8928,108.597 239.5768,108.28 239.5768,107.929 L239.5768,84.675 Z" id="Fill-26" fill="#005596"></path>
                <path d="M130.1644,36.466 L135.5914,51.456 L123.5494,41.721 L122.4214,40.808 L121.2684,41.688 L108.4984,51.43 L113.8814,36.463 L114.3634,35.121 L113.1884,34.316 L99.9824,25.244 L116.9554,25.244 L117.3734,23.976 L122.0564,9.767 L126.6684,23.967 L127.0834,25.244 L144.1954,25.244 L130.8634,34.311 L129.6764,35.117 L130.1644,36.466 Z M128.3314,23.397 L121.9754,3.826 L115.5254,23.397 L93.9374,23.397 L112.0494,35.838 L104.5474,56.695 L122.2944,43.157 L139.4904,57.062 L131.8074,35.838 L150.1024,23.397 L128.3314,23.397 Z" id="Fill-28" fill="#FEFEFE"></path>
            </g>
        </g>
    </g>
</svg>