<?xml version="1.0" standalone="no"?>
<!DOCTYPE svg PUBLIC "-//W3C//DTD SVG 20010904//EN"
 "http://www.w3.org/TR/2001/REC-SVG-20010904/DTD/svg10.dtd">
<svg version="1.0" xmlns="http://www.w3.org/2000/svg"
 width="500.000000pt" height="500.000000pt" viewBox="0 0 500.000000 500.000000"
 preserveAspectRatio="xMidYMid meet">
<metadata>
Created by potrace 1.11, written by Peter Selinger 2001-2013
</metadata>
<g transform="translate(0.000000,500.000000) scale(0.100000,-0.100000)"
fill="#000000" stroke="none">
<path d="M2125 4344 c-198 -145 -371 -273 -384 -284 -29 -23 -33 -21 -121 75
-35 39 -69 75 -75 81 -5 6 -53 57 -105 114 -52 56 -111 119 -130 140 -33 35
-51 45 -97 55 -10 2 -73 17 -140 34 -139 35 -147 36 -140 16 4 -8 9 -47 13
-87 3 -40 8 -76 10 -79 1 -3 6 -28 9 -55 11 -98 16 -111 53 -151 20 -23 46
-52 56 -65 20 -23 204 -231 263 -297 18 -20 33 -40 32 -46 0 -5 -81 -68 -180
-140 -99 -71 -186 -135 -192 -140 -7 -6 -103 -77 -215 -159 -111 -82 -205
-152 -207 -157 -3 -4 -1 -16 4 -26 5 -10 35 -103 66 -208 32 -104 66 -217 77
-250 11 -33 32 -103 48 -155 15 -52 74 -241 130 -420 134 -431 170 -548 170
-557 0 -5 -12 -22 -28 -38 -15 -17 -67 -75 -117 -129 -131 -145 -165 -181
-165 -176 0 3 -20 54 -43 113 l-43 108 -100 -107 c-140 -151 -145 -157 -187
-201 l-39 -41 79 -18 c43 -9 85 -19 95 -21 45 -8 158 -58 148 -65 -3 -2 -31
-21 -63 -41 -32 -21 -76 -54 -98 -74 -40 -36 -126 -153 -113 -153 3 0 2 -6 -3
-12 -6 -7 -16 -29 -22 -50 -8 -25 -19 -38 -36 -42 -57 -14 -100 -93 -83 -153
11 -40 66 -98 95 -100 10 -1 23 -3 28 -4 6 -1 28 3 50 10 43 13 85 61 88 99 1
13 13 24 37 32 93 34 201 141 263 264 32 63 34 66 50 48 27 -30 58 -106 113
-280 2 -8 16 1 36 25 18 21 38 43 44 48 5 6 41 46 80 90 38 44 72 82 75 85 4
3 22 23 41 46 l34 41 1215 -1 1216 -1 153 -173 152 -172 39 114 c32 97 79 196
93 196 2 0 21 -35 42 -77 50 -100 154 -207 236 -243 44 -20 58 -31 62 -51 8
-39 45 -78 90 -93 33 -11 44 -11 78 2 46 18 87 67 92 109 7 49 -26 107 -75
134 -26 15 -45 34 -49 49 -27 101 -140 236 -247 295 -28 16 -49 33 -46 38 13
21 153 68 248 83 67 10 67 15 8 79 -30 33 -96 104 -146 158 -50 54 -96 105
-102 114 -11 15 -13 15 -24 -5 -6 -12 -9 -22 -5 -22 3 0 2 -6 -4 -12 -6 -7
-22 -44 -36 -81 -14 -38 -28 -72 -31 -77 -5 -8 -83 67 -155 151 -16 19 -58 65
-93 104 l-65 69 18 51 c10 27 48 145 84 260 37 116 71 218 76 227 6 10 10 23
10 30 0 7 29 100 64 208 100 306 158 483 162 499 3 16 45 141 90 276 l24 70
-21 17 c-12 10 -198 144 -415 299 -217 154 -394 283 -394 287 0 3 15 22 34 41
19 20 56 61 83 91 26 31 78 89 114 130 136 153 166 190 166 202 0 21 14 132
18 148 2 8 6 38 10 65 3 28 8 65 11 83 3 17 3 32 0 32 -3 0 -72 -16 -153 -36
-82 -20 -154 -37 -161 -38 -18 -3 -34 -18 -147 -140 -55 -60 -113 -123 -130
-141 -16 -17 -63 -68 -104 -113 -41 -45 -78 -82 -81 -82 -6 0 -396 273 -425
297 -5 4 -89 64 -185 132 -96 68 -179 128 -185 132 -6 4 -170 -110 -370 -257z
m-882 -3314 c43 -144 42 -130 7 -119 -16 5 -43 13 -60 18 -16 5 -30 7 -30 4 0
-3 -6 -1 -13 5 -7 6 -26 13 -42 16 -17 2 -31 5 -33 5 -4 1 81 103 111 133 9
10 17 23 17 30 0 28 18 -12 43 -92z m2650 -20 l37 -44 -27 -11 c-16 -7 -53
-18 -83 -25 -30 -7 -63 -17 -73 -22 -10 -5 -21 -8 -23 -5 -3 2 7 40 20 83 14
43 26 84 27 89 0 6 6 19 11 29 12 22 7 26 111 -94z"/>
</g>
</svg>
